<svg xmlns="http://www.w3.org/2000/svg" xmlns:xlink="http://www.w3.org/1999/xlink" width="169" height="56.7" viewBox="0 0 169 56.7"><defs><style>.a{fill:#7e61a6;}.b{fill:#565655;}.c{fill:#46bdd6;}.d{fill:url(#a);}</style><radialGradient id="a" cx="0.499" cy="0.5" r="0.499" gradientTransform="translate(0)" gradientUnits="objectBoundingBox"><stop offset="0" stop-color="#46bdd6"/><stop offset="1" stop-color="#485ca6"/></radialGradient></defs><path class="a" d="M402.32,239.82h13.591c.42,0,.759.176.759.4h0a4.441,4.441,0,0,1-4.429,4.429h-5.1a.764.764,0,0,0-.759.76v6a.764.764,0,0,0,.76.764h4.417a.764.764,0,0,1,.76.76h0a4.073,4.073,0,0,1-4.061,4.061H407.14a.764.764,0,0,0-.76.763v7.415a.764.764,0,0,1-.76.764h-3.3a.764.764,0,0,1-.759-.764V240.2C401.56,239.992,401.9,239.816,402.32,239.82Z" transform="translate(-324.94 -234.483)"/><path class="a" d="M498.367,261.1a.764.764,0,0,0,.764.76h8.75a.763.763,0,0,1,.759.764v2.554a.759.759,0,0,1-.76.76H494.29a.764.764,0,0,1-.759-.76V240.574a.764.764,0,0,1,.76-.764h3.3a.763.763,0,0,1,.76.764Z" transform="translate(-380.146 -234.477)"/><path class="a" d="M592.406,240.462a1.5,1.5,0,0,1,1.155-.652h4.113c.4,0,.584.3.368.652L589.48,254.6a3.253,3.253,0,0,0-.4,1.415v9.166a.764.764,0,0,1-.76.764h-3.3a.764.764,0,0,1-.76-.764v-9.17a3.218,3.218,0,0,0-.4-1.411L575.3,240.462c-.216-.36-.052-.652.368-.652h4.109a1.5,1.5,0,0,1,1.155.652l5.337,8.794a.424.424,0,0,0,.8,0Z" transform="translate(-429.169 -234.477)"/><path class="b" d="M402.344,341.581a2.023,2.023,0,0,1-.588-1.515V335.7a2,2,0,0,1,.588-1.515,2.4,2.4,0,0,1,3.118,0,2,2,0,0,1,.6,1.527v.5a.108.108,0,0,1-.12.12h-.891a.108.108,0,0,1-.12-.12v-.524a1.1,1.1,0,0,0-.28-.8,1.059,1.059,0,0,0-1.467,0,1.1,1.1,0,0,0-.28.8v4.4a1.1,1.1,0,0,0,.28.8,1.059,1.059,0,0,0,1.467,0,1.1,1.1,0,0,0,.28-.8v-1.311a.044.044,0,0,0-.048-.048h-.9a.108.108,0,0,1-.12-.12v-.74a.108.108,0,0,1,.12-.12h2a.108.108,0,0,1,.12.12v2.207a2,2,0,0,1-.6,1.515,2.4,2.4,0,0,1-3.118,0Z" transform="translate(-325.057 -290.781)"/><path class="b" d="M421.257,342.11l-1.1-3.554a.048.048,0,0,0-.048-.036h-.836c-.028,0-.044,0-.044.048v3.518a.108.108,0,0,1-.12.12h-.891a.108.108,0,0,1-.12-.12v-8.107a.108.108,0,0,1,.12-.12h2.135A1.9,1.9,0,0,1,422.148,335a2.826,2.826,0,0,1,.256,1.231,2.614,2.614,0,0,1-.312,1.307,1.839,1.839,0,0,1-.843.8.068.068,0,0,0-.024.072l1.2,3.662v.048q0,.084-.108.084h-.9a.14.14,0,0,1-.16-.092Zm-2-7.215v2.67c0,.036,0,.052.044.052h.883a.955.955,0,0,0,.8-.38,1.539,1.539,0,0,0,.3-1,1.6,1.6,0,0,0-.3-1.019.963.963,0,0,0-.8-.376H419.3C419.258,334.846,419.258,334.862,419.258,334.894Z" transform="translate(-334.867 -290.93)"/><path class="b" d="M434.1,341.551a2.143,2.143,0,0,1-.6-1.6V335.8a2.167,2.167,0,0,1,.6-1.6,2.111,2.111,0,0,1,1.571-.6,2.067,2.067,0,0,1,2.195,2.195v4.161a2.131,2.131,0,0,1-.6,1.6,2.166,2.166,0,0,1-1.6.6A2.127,2.127,0,0,1,434.1,341.551Zm2.335-.712a1.2,1.2,0,0,0,.288-.827v-4.253a1.2,1.2,0,0,0-.288-.827.967.967,0,0,0-.764-.316.943.943,0,0,0-.744.316,1.2,1.2,0,0,0-.28.827v4.269a1.2,1.2,0,0,0,.28.827.943.943,0,0,0,.743.316.967.967,0,0,0,.76-.332Z" transform="translate(-344.108 -290.775)"/><path class="b" d="M450.418,342.1l-1.6-8.107v-.024a.1.1,0,0,1,.1-.108h.943a.116.116,0,0,1,.132.108l.963,5.6a.021.021,0,0,0,.024.02c.024,0,0,0,.024-.02l.859-5.6a.108.108,0,0,1,.12-.108h.8a.108.108,0,0,1,.12.108l.915,5.6a.021.021,0,0,0,.024.02c.024,0,0,0,.024-.02l.883-5.6a.116.116,0,0,1,.12-.108h.931a.112.112,0,0,1,.088.036.108.108,0,0,1,0,.1l-1.5,8.107a.116.116,0,0,1-.132.108h-.815a.116.116,0,0,1-.12-.108l-.907-5.64a.025.025,0,0,0-.028-.024c-.028,0-.02,0-.02.024l-.855,5.64a.108.108,0,0,1-.12.108h-.847A.124.124,0,0,1,450.418,342.1Z" transform="translate(-353.307 -290.929)"/><path class="b" d="M471.5,342.086v-8.107a.1.1,0,0,1,.116-.12h.907a.108.108,0,0,1,.12.12v8.107a.108.108,0,0,1-.12.12h-.907a.1.1,0,0,1-.116-.12Z" transform="translate(-366.92 -290.93)"/><path class="b" d="M483.813,333.856h.9a.108.108,0,0,1,.12.12v8.107a.108.108,0,0,1-.12.12h-1.027a.132.132,0,0,1-.128-.1l-2.031-5.449a.024.024,0,0,0-.032-.02.032.032,0,0,0-.024.032v5.413a.108.108,0,0,1-.12.12h-.907a.108.108,0,0,1-.12-.12v-8.107a.108.108,0,0,1,.12-.12h1.015a.124.124,0,0,1,.128.1l2.039,5.449c0,.024.02.032.04.028s.02,0,.02-.04v-5.413a.108.108,0,0,1,.132-.12Z" transform="translate(-372.215 -290.927)"/><path class="b" d="M497.764,341.581a2.023,2.023,0,0,1-.588-1.515V335.7a2,2,0,0,1,.588-1.515,2.4,2.4,0,0,1,3.118,0,2,2,0,0,1,.6,1.527v.5a.1.1,0,0,1-.116.12h-.907a.108.108,0,0,1-.12-.12v-.524a1.1,1.1,0,0,0-.28-.8,1.059,1.059,0,0,0-1.467,0,1.1,1.1,0,0,0-.28.8v4.4a1.1,1.1,0,0,0,.28.8,1.059,1.059,0,0,0,1.467,0,1.1,1.1,0,0,0,.28-.8v-1.311a.044.044,0,0,0-.048-.048h-.907a.1.1,0,0,1-.116-.12v-.74a.1.1,0,0,1,.116-.12h2a.1.1,0,0,1,.116.12v2.207a2,2,0,0,1-.6,1.515,2.4,2.4,0,0,1-3.118,0Z" transform="translate(-382.333 -290.781)"/><path class="b" d="M530.045,342.086v-8.107a.1.1,0,0,1,.116-.12h.907a.108.108,0,0,1,.12.12v7.2a.044.044,0,0,0,.048.048h2.67a.108.108,0,0,1,.12.12v.752a.108.108,0,0,1-.12.12h-3.746a.1.1,0,0,1-.116-.128Z" transform="translate(-402.062 -290.93)"/><path class="b" d="M548.356,334.846h-2.682a.044.044,0,0,0-.048.048v2.59a.044.044,0,0,0,.048.048h1.643a.1.1,0,0,1,.12.116v.752a.108.108,0,0,1-.12.12h-1.643a.044.044,0,0,0-.048.048v2.6a.044.044,0,0,0,.048.048h2.682a.108.108,0,0,1,.12.12v.752a.108.108,0,0,1-.12.12H544.6a.108.108,0,0,1-.12-.12v-8.107a.108.108,0,0,1,.12-.12h3.758a.108.108,0,0,1,.12.12v.736C548.476,334.81,548.436,334.846,548.356,334.846Z" transform="translate(-410.727 -290.93)"/><path class="b" d="M562.563,342.1l-.264-1.371a.051.051,0,0,0,0-.036.08.08,0,0,0-.044,0h-1.943a.068.068,0,0,0-.04,0,.044.044,0,0,0,0,.036l-.252,1.371a.112.112,0,0,1-.128.108h-.943a.086.086,0,0,1-.088-.132l1.775-8.107a.124.124,0,0,1,.132-.108h1.063a.116.116,0,0,1,.132.108l1.787,8.107v.024a.1.1,0,0,1-.108.108h-.927a.124.124,0,0,1-.152-.108Zm-2.087-2.327h1.6q.036,0,.036-.048l-.8-4.233a.025.025,0,0,0-.028-.024c-.028,0,0,0,0,.024l-.8,4.233Q560.441,339.771,560.477,339.771Z" transform="translate(-419.354 -290.929)"/><path class="b" d="M575.589,342.083v-8.107a.108.108,0,0,1,.12-.12h1.955a2.087,2.087,0,0,1,1.575.608,2.279,2.279,0,0,1,.584,1.643v3.842a2.291,2.291,0,0,1-.584,1.647,2.087,2.087,0,0,1-1.575.608h-1.955a.108.108,0,0,1-.12-.12Zm1.2-.871h.871a.867.867,0,0,0,.728-.352,1.555,1.555,0,0,0,.288-.959v-3.722a1.539,1.539,0,0,0-.276-.963.88.88,0,0,0-.74-.36h-.871c-.028,0-.044,0-.044.048v6.272c-.008.02.008.036.036.036Z" transform="translate(-429.401 -290.927)"/><path class="b" d="M595.572,334.846H592.89a.044.044,0,0,0-.048.048v2.59a.044.044,0,0,0,.048.048h1.647a.1.1,0,0,1,.12.116v.752a.108.108,0,0,1-.12.12H592.89a.044.044,0,0,0-.048.048v2.6a.044.044,0,0,0,.048.048h2.682a.108.108,0,0,1,.12.12v.752a.108.108,0,0,1-.12.12h-3.754a.108.108,0,0,1-.12-.12v-8.107a.108.108,0,0,1,.12-.12h3.754a.108.108,0,0,1,.12.12v.736C595.692,334.81,595.652,334.846,595.572,334.846Z" transform="translate(-439.071 -290.93)"/><path class="b" d="M610.053,342.11l-1.1-3.554a.048.048,0,0,0-.048-.036h-.836c-.032,0-.044,0-.044.048v3.518a.108.108,0,0,1-.12.12H607a.108.108,0,0,1-.12-.12v-8.107a.108.108,0,0,1,.12-.12h2.135A1.9,1.9,0,0,1,610.928,335a2.827,2.827,0,0,1,.256,1.231,2.615,2.615,0,0,1-.312,1.307,1.839,1.839,0,0,1-.843.8.068.068,0,0,0-.024.072l1.2,3.662v.048q0,.084-.108.084h-.931A.14.14,0,0,1,610.053,342.11Zm-2.027-7.215v2.67c0,.036,0,.052.044.052h.883a.955.955,0,0,0,.8-.38,1.539,1.539,0,0,0,.3-1,1.6,1.6,0,0,0-.3-1.019.964.964,0,0,0-.8-.376h-.883C608.038,334.846,608.026,334.862,608.026,334.894Z" transform="translate(-448.183 -290.93)"/><path class="b" d="M622.672,341.568a2.115,2.115,0,0,1-.58-1.543v-.312a.108.108,0,0,1,.12-.12h.883a.108.108,0,0,1,.12.12v.252a1.339,1.339,0,0,0,.272.875.875.875,0,0,0,.7.328.908.908,0,0,0,.712-.316,1.347,1.347,0,0,0,.132-1.435,1.766,1.766,0,0,0-.4-.472c-.164-.14-.428-.344-.8-.616a11.56,11.56,0,0,1-.955-.776,2.8,2.8,0,0,1-.584-.775,2.228,2.228,0,0,1-.24-1.059,2.047,2.047,0,0,1,.576-1.531,2.111,2.111,0,0,1,3.6,1.639v.3a.1.1,0,0,1-.116.12h-.883a.108.108,0,0,1-.12-.12v-.32a1.287,1.287,0,0,0-.276-.863.939.939,0,0,0-1.4-.036,1.2,1.2,0,0,0-.26.8,1.259,1.259,0,0,0,.26.8,5.805,5.805,0,0,0,1.015.879c.476.356.835.648,1.079.867a2.48,2.48,0,0,1,.56.736,2.1,2.1,0,0,1,.2.947,2.191,2.191,0,0,1-.584,1.6,2.239,2.239,0,0,1-3.046,0Z" transform="translate(-457.292 -290.788)"/><circle class="a" cx="5.409" cy="5.409" r="5.409" transform="translate(0 22.942)"/><circle class="c" cx="5.409" cy="5.409" r="5.409" transform="translate(22.942 0)"/><circle class="a" cx="5.409" cy="5.409" r="5.409" transform="translate(22.942 45.883)"/><circle class="a" cx="5.409" cy="5.409" r="5.409" transform="translate(45.883 22.942)"/><path class="d" d="M270.761,279.627a5.389,5.389,0,0,0-3.966-1.571,6.536,6.536,0,0,1-1.951-.18,5.493,5.493,0,0,1-3.038-2.167,6.252,6.252,0,0,1-.971-3.9,2.175,2.175,0,0,1,0-.228,6.216,6.216,0,0,1,1.439-3.854,3.885,3.885,0,0,1,.336-.344,5.453,5.453,0,0,1,1.359-.935,4.913,4.913,0,0,1,.8-.312c1.3-.4,2.686-.1,3.966-.556a5.325,5.325,0,0,0,2-1.259,5.409,5.409,0,1,0-9.194-4.165c-.024.34.028.672.036,1.011a5.1,5.1,0,0,1-.068.955,5.216,5.216,0,0,1-.64,1.795,5.325,5.325,0,0,1-3.166,2.438,6.72,6.72,0,0,1-1.439.236,11.188,11.188,0,0,1-1.419,0,8.517,8.517,0,0,1-1.315-.128,5.061,5.061,0,0,1-1.631-.7,5.317,5.317,0,0,1-.923-.74,5.552,5.552,0,0,1-1.6-4.229,5.4,5.4,0,1,0-9.194,3.546,5.3,5.3,0,0,0,1.571,1.091,5.44,5.44,0,0,0,1.807.456c.528.04,1.059.056,1.6.1a5.149,5.149,0,0,1,2.059.572,5.275,5.275,0,0,1,.8.5,5.465,5.465,0,0,1,.512.448,5.808,5.808,0,0,1,1.139,1.7,7.292,7.292,0,0,1,.472,2.746,9.713,9.713,0,0,1,0,1.447,4.853,4.853,0,0,1-.688,2,5.533,5.533,0,0,1-4.305,2.7c-.352.024-.688-.024-1.035-.028a5.1,5.1,0,0,0-.923.06,5.337,5.337,0,0,0-2.986,1.507,5.408,5.408,0,1,0,7.648,7.648,5.6,5.6,0,0,0,1.574-3.5c.024-.26,0-.532,0-.8a7.411,7.411,0,0,1,.064-.843,5.509,5.509,0,0,1,1.567-3.154,5.6,5.6,0,0,1,3.406-1.6,8.846,8.846,0,0,1,3.318.264,5.437,5.437,0,0,1,3.138,2.558,5.636,5.636,0,0,1,.68,2.954,5.4,5.4,0,1,0,9.194-3.518Z" transform="translate(-227.116 -243.63)"/></svg>